<?xml version="1.0" standalone="no"?>
<!DOCTYPE svg PUBLIC "-//W3C//DTD SVG 20010904//EN"
 "http://www.w3.org/TR/2001/REC-SVG-20010904/DTD/svg10.dtd">
<svg version="1.0" xmlns="http://www.w3.org/2000/svg"
 width="508.000000pt" height="99.000000pt" viewBox="0 0 508.000000 99.000000"
 preserveAspectRatio="xMidYMid meet">

<g transform="translate(0.000000,99.000000) scale(0.100000,-0.100000)"
fill="#000000" stroke="none">
<path d="M2130 435 c0 -248 1 -255 20 -255 18 0 20 7 20 63 0 60 2 65 36 98
20 18 38 30 40 24 3 -5 28 -48 58 -95 46 -75 57 -85 84 -88 l32 -3 -74 113
-74 113 61 63 c61 62 61 62 31 62 -24 0 -44 -15 -104 -75 -41 -41 -78 -75 -82
-75 -5 0 -8 70 -8 155 0 148 -1 155 -20 155 -19 0 -20 -7 -20 -255z"/>
<path d="M3881 674 c-45 -32 -51 -68 -51 -289 l0 -205 45 0 45 0 0 145 0 145
35 0 c33 0 35 2 35 35 0 33 -2 35 -35 35 -32 0 -35 3 -35 28 0 34 16 52 47 52
20 0 23 5 23 35 0 35 -1 35 -43 35 -23 0 -53 -7 -66 -16z"/>
<path d="M4040 481 c0 -126 4 -220 11 -240 14 -38 54 -61 109 -61 39 0 40 1
40 35 0 30 -3 35 -23 35 -45 0 -47 12 -47 232 l0 208 -45 0 -45 0 0 -209z"/>
<path d="M1300 451 c0 -240 10 -270 93 -271 30 0 37 3 37 20 0 15 -7 20 -28
20 -47 0 -52 14 -52 142 l0 118 28 0 c16 0 37 9 47 20 18 20 17 20 -28 20
l-47 0 0 60 c0 57 -1 60 -25 60 l-25 0 0 -189z"/>
<path d="M2580 532 c-59 -29 -80 -72 -80 -164 0 -121 27 -165 113 -189 48 -13
112 4 149 38 52 50 62 197 18 269 -36 58 -132 80 -200 46z m106 -70 c22 -14
34 -52 34 -107 0 -46 -4 -60 -25 -80 -41 -42 -86 -28 -105 31 -15 45 -6 121
17 146 16 18 59 24 79 10z"/>
<path d="M2848 543 c-16 -2 -28 -7 -28 -11 1 -4 29 -83 64 -177 l63 -170 37 0
38 0 64 174 c35 96 62 177 59 179 -2 3 -22 5 -43 6 l-39 1 -38 -115 c-21 -63
-40 -110 -42 -105 -3 6 -21 57 -41 115 -38 108 -41 111 -94 103z"/>
<path d="M3255 536 c-64 -29 -95 -85 -95 -169 0 -72 15 -118 47 -149 52 -50
163 -57 228 -14 31 20 31 27 2 54 -21 20 -25 20 -43 7 -22 -17 -87 -20 -114
-5 -19 10 -43 64 -33 74 4 3 57 6 120 6 l113 0 0 38 c0 46 -36 119 -72 145
-34 25 -113 32 -153 13z m110 -81 c14 -13 25 -33 25 -45 0 -18 -6 -20 -68 -20
-38 0 -71 3 -75 6 -9 9 12 57 30 72 26 19 62 14 88 -13z"/>
<path d="M3530 363 l0 -183 45 0 45 0 0 123 c0 95 4 128 16 145 16 23 53 29
83 12 14 -7 25 -2 50 24 29 30 31 34 15 47 -26 21 -117 18 -143 -5 -21 -19
-21 -19 -21 0 0 16 -7 19 -45 19 l-45 0 0 -182z"/>
<path d="M4315 536 c-16 -7 -41 -26 -55 -41 -23 -24 -25 -36 -28 -123 -2 -83
0 -102 17 -129 55 -88 207 -89 261 -1 43 71 33 212 -18 261 -49 47 -117 59
-177 33z m109 -82 c22 -22 29 -57 24 -116 -8 -79 -58 -110 -109 -69 -21 17
-24 28 -24 89 0 55 4 74 19 91 23 25 68 28 90 5z"/>
<path d="M4777 542 c-2 -4 -19 -55 -38 -114 -19 -59 -37 -108 -40 -108 -4 0
-9 15 -13 33 -4 17 -16 67 -27 110 l-21 77 -45 0 c-33 0 -44 -4 -41 -14 2 -7
26 -89 53 -180 l50 -167 39 3 39 3 36 107 c20 59 38 109 41 112 3 3 23 -46 44
-109 l37 -115 37 0 37 0 53 173 c57 188 60 202 36 193 -9 -3 -28 -6 -43 -6
-27 0 -29 -3 -57 -110 -15 -60 -31 -107 -34 -104 -3 3 -21 53 -40 111 -35 102
-37 106 -67 109 -18 2 -34 0 -36 -4z"/>
<path d="M1031 516 c-44 -25 -63 -84 -40 -128 13 -25 67 -48 112 -48 80 0 124
-39 98 -88 -23 -43 -123 -52 -180 -15 -21 13 -25 13 -38 0 -14 -13 -12 -17 11
-32 73 -48 214 -34 246 24 16 30 12 86 -7 110 -13 16 -37 25 -88 33 -101 15
-115 22 -115 57 0 57 63 84 137 58 40 -13 63 -8 63 14 0 27 -156 39 -199 15z"/>
<path d="M1506 509 c-25 -20 -26 -23 -12 -37 14 -14 17 -14 36 3 15 13 36 19
71 19 59 0 87 -22 95 -76 l6 -35 -86 -5 c-98 -5 -135 -24 -150 -76 -11 -39 7
-87 41 -109 33 -22 123 -22 156 0 32 21 37 21 37 2 0 -8 9 -15 20 -15 19 0 20
7 20 141 0 77 -5 149 -10 160 -28 51 -172 69 -224 28z m190 -211 c-8 -50 -28
-75 -67 -83 -63 -14 -119 15 -119 62 0 49 24 63 113 63 l80 0 -7 -42z"/>
<path d="M1859 503 c-42 -36 -59 -79 -59 -154 0 -149 127 -222 248 -143 24 16
25 17 7 30 -16 12 -22 11 -44 -2 -34 -23 -96 -21 -123 2 -64 57 -62 192 3 238
29 20 97 21 119 1 18 -17 50 -11 50 9 0 23 -57 46 -113 46 -46 0 -61 -5 -88
-27z"/>
</g>
</svg>
